<svg width="24" height="24" viewBox="0 0 24 24" fill="none" xmlns="http://www.w3.org/2000/svg">
<path d="M23 13.3938C23 13.6704 22.886 13.9357 22.6831 14.1313C22.4802 14.3269 22.205 14.4368 21.918 14.4368H21.1967V15.1322C21.1967 15.4088 21.0827 15.6741 20.8798 15.8697C20.6769 16.0654 20.4017 16.1753 20.1148 16.1753C19.8278 16.1753 19.5526 16.0654 19.3497 15.8697C19.1468 15.6741 19.0328 15.4088 19.0328 15.1322V14.4368H18.3115C18.0246 14.4368 17.7494 14.3269 17.5465 14.1313C17.3436 13.9357 17.2296 13.6704 17.2296 13.3938C17.2296 13.1171 17.3436 12.8518 17.5465 12.6562C17.7494 12.4606 18.0246 12.3507 18.3115 12.3507H19.0328V11.6553C19.0328 11.3787 19.1468 11.1134 19.3497 10.9178C19.5526 10.7222 19.8278 10.6123 20.1148 10.6123C20.4017 10.6123 20.6769 10.7222 20.8798 10.9178C21.0827 11.1134 21.1967 11.3787 21.1967 11.6553V12.3507H21.918C22.205 12.3507 22.4802 12.4606 22.6831 12.6562C22.886 12.8518 23 13.1171 23 13.3938ZM18.0582 18.2857C18.2428 18.4976 18.3325 18.7714 18.3077 19.0471C18.2828 19.3227 18.1454 19.5776 17.9256 19.7556C17.7059 19.9335 17.4218 20.02 17.1358 19.9961C16.8499 19.9721 16.5856 19.8396 16.401 19.6278C15.1666 18.211 12.9919 16.5229 9.65586 16.5229C7.05105 16.5229 4.65542 17.6251 2.91076 19.6278C2.72616 19.8396 2.46181 19.9721 2.17588 19.9961C1.88996 20.02 1.60586 19.9335 1.38611 19.7556C1.16635 19.5776 1.02892 19.3227 1.00407 19.0471C0.979213 18.7714 1.06896 18.4976 1.25357 18.2857C2.42904 16.9171 3.93708 15.8496 5.64361 15.1783C4.58242 14.374 3.8077 13.2707 3.42726 12.0221C3.04683 10.7735 3.0796 9.44164 3.52102 8.21184C3.96244 6.98203 4.79055 5.91546 5.89011 5.16057C6.98967 4.40567 8.30598 4 9.65586 4C11.0057 4 12.3221 4.40567 13.4216 5.16057C14.5212 5.91546 15.3493 6.98203 15.7907 8.21184C16.2321 9.44164 16.2649 10.7735 15.8845 12.0221C15.504 13.2707 14.7293 14.374 13.6681 15.1783C15.3748 15.8494 16.8829 16.9169 18.0582 18.2857ZM9.65586 14.4368C10.5118 14.4368 11.3486 14.1921 12.0603 13.7337C12.772 13.2752 13.3267 12.6236 13.6543 11.8612C13.9818 11.0989 14.0675 10.26 13.9005 9.45062C13.7335 8.64129 13.3214 7.89787 12.7161 7.31437C12.1108 6.73087 11.3397 6.3335 10.5002 6.17252C9.66066 6.01153 8.79048 6.09415 7.99968 6.40994C7.20887 6.72573 6.53295 7.26049 6.05741 7.94661C5.58186 8.63273 5.32804 9.43939 5.32804 10.2646C5.32923 11.3708 5.78558 12.4313 6.59694 13.2135C7.40831 13.9957 8.50842 14.4357 9.65586 14.4368Z" fill="#8B95A1"/>
</svg>
