<svg width="24" height="24" viewBox="0 0 24 24" fill="none" xmlns="http://www.w3.org/2000/svg">
<path d="M12 3C10.22 3 8.47991 3.52784 6.99987 4.51677C5.51983 5.50571 4.36628 6.91131 3.68509 8.55585C3.0039 10.2004 2.82567 12.01 3.17294 13.7558C3.5202 15.5016 4.37737 17.1053 5.63604 18.364C6.89471 19.6226 8.49836 20.4798 10.2442 20.8271C11.99 21.1743 13.7996 20.9961 15.4442 20.3149C17.0887 19.6337 18.4943 18.4802 19.4832 17.0001C20.4722 15.5201 21 13.78 21 12C20.9975 9.61382 20.0485 7.3261 18.3612 5.63882C16.6739 3.95154 14.3862 3.00252 12 3ZM7.84616 13.0385C7.84616 12.8331 7.90706 12.6323 8.02117 12.4615C8.13528 12.2907 8.29746 12.1576 8.48722 12.079C8.67697 12.0004 8.88577 11.9799 9.08721 12.02C9.28865 12.06 9.47369 12.1589 9.61892 12.3042C9.76415 12.4494 9.86306 12.6344 9.90313 12.8359C9.94319 13.0373 9.92263 13.2461 9.84403 13.4359C9.76543 13.6256 9.63233 13.7878 9.46156 13.9019C9.29078 14.016 9.09001 14.0769 8.88462 14.0769C8.6092 14.0769 8.34506 13.9675 8.15031 13.7728C7.95557 13.578 7.84616 13.3139 7.84616 13.0385ZM14.6533 17.2295C14.5516 17.3823 14.3933 17.4885 14.2134 17.5247C14.0334 17.5609 13.8464 17.5241 13.6936 17.4225C13.1311 17.0487 12.6923 16.8462 12 16.8462C11.3077 16.8462 10.8689 17.0487 10.3064 17.4225C10.1536 17.5204 9.96838 17.5543 9.79074 17.517C9.61311 17.4796 9.45724 17.374 9.35671 17.2229C9.25618 17.0717 9.21902 16.8872 9.25325 16.7089C9.28748 16.5306 9.39035 16.373 9.53971 16.2698C10.2692 15.7843 10.9667 15.4615 12 15.4615C13.0333 15.4615 13.7308 15.7843 14.4603 16.2698C14.6131 16.3715 14.7193 16.5297 14.7555 16.7097C14.7917 16.8897 14.7549 17.0767 14.6533 17.2295ZM15.1154 14.0769C14.91 14.0769 14.7092 14.016 14.5384 13.9019C14.3677 13.7878 14.2346 13.6256 14.156 13.4359C14.0774 13.2461 14.0568 13.0373 14.0969 12.8359C14.1369 12.6344 14.2359 12.4494 14.3811 12.3042C14.5263 12.1589 14.7114 12.06 14.9128 12.02C15.1142 11.9799 15.323 12.0004 15.5128 12.079C15.7025 12.1576 15.8647 12.2907 15.9788 12.4615C16.0929 12.6323 16.1538 12.8331 16.1538 13.0385C16.1538 13.3139 16.0444 13.578 15.8497 13.7728C15.6549 13.9675 15.3908 14.0769 15.1154 14.0769ZM16.5381 9.11481L12.3842 11.884C12.2705 11.9599 12.1368 12.0004 12 12.0004C11.8632 12.0004 11.7295 11.9599 11.6158 11.884L7.46193 9.11481C7.38624 9.06435 7.32123 8.99948 7.27062 8.9239C7.22 8.84831 7.18477 8.7635 7.16693 8.67431C7.14909 8.58511 7.14899 8.49327 7.16664 8.40404C7.1843 8.3148 7.21935 8.22992 7.26981 8.15423C7.37171 8.00137 7.53017 7.89526 7.71031 7.85923C7.79951 7.84139 7.89135 7.84129 7.98058 7.85895C8.06982 7.8766 8.1547 7.91166 8.23039 7.96211L12 10.4761L15.7696 7.96644C15.8453 7.91598 15.9302 7.88093 16.0194 7.86327C16.1087 7.84562 16.2005 7.84572 16.2897 7.86356C16.3789 7.8814 16.4637 7.91663 16.5393 7.96725C16.6149 8.01786 16.6797 8.08287 16.7302 8.15856C16.7807 8.23424 16.8157 8.31913 16.8334 8.40836C16.851 8.4976 16.8509 8.58944 16.8331 8.67863C16.8152 8.76783 16.78 8.85264 16.7294 8.92822C16.6788 9.0038 16.6138 9.06868 16.5381 9.11913V9.11481Z" fill="#EFAB46"/>
</svg>
