<svg width="60" height="49" viewBox="0 0 60 49" fill="none" xmlns="http://www.w3.org/2000/svg">
<path d="M39.5833 15.7459C39.5836 17.4724 39.137 19.1695 38.2869 20.6722C37.4367 22.1749 36.212 23.4318 34.732 24.3207C33.252 25.2097 31.567 25.7002 29.8411 25.7448C28.1152 25.7893 26.4072 25.3862 24.8833 24.5747L21.6092 25.6661C21.3381 25.7565 21.0473 25.7696 20.7691 25.704C20.491 25.6383 20.2367 25.4966 20.0346 25.2945C19.8326 25.0924 19.6908 24.8381 19.6252 24.56C19.5595 24.2819 19.5727 23.991 19.6631 23.7199L20.7544 20.4459C20.0411 19.1048 19.6427 17.6188 19.5894 16.1007C19.5361 14.5826 19.8294 13.0723 20.447 11.6845C21.0645 10.2967 21.9901 9.06777 23.1536 8.09108C24.317 7.1144 25.6876 6.41559 27.1614 6.0477C28.6352 5.67981 30.1734 5.65252 31.6594 5.96789C33.1453 6.28325 34.5399 6.933 35.7372 7.86779C36.9345 8.80259 37.9031 9.99787 38.5695 11.3629C39.236 12.728 39.5826 14.2269 39.5833 15.7459Z" fill="#4E5968"/>
<path d="M28.9947 44.869H27.7737V39.952H26.9597V44.418H25.7497V35.244H26.9597V38.918H27.7737V35.068H28.9947V44.869ZM25.4637 41.91L24.7487 42.823C24.1107 42.449 23.2857 41.525 23.0327 40.656C22.8017 41.569 21.9877 42.581 21.1957 43.043L20.4147 42.174C21.6907 41.349 22.3397 40.304 22.4167 38.544H20.7997V37.521H25.2217V38.544H23.6707C23.7587 40.271 24.4077 41.294 25.4637 41.91ZM24.3307 36.839H21.7677V35.816H24.3307V36.839ZM38.3143 42.9C38.3143 44.044 37.0383 44.759 34.8383 44.759C32.6493 44.759 31.3843 44.044 31.3843 42.9C31.3843 41.723 32.6493 40.997 34.8383 40.997C37.0383 40.997 38.3143 41.723 38.3143 42.9ZM38.2593 35.068V40.81H36.9723V35.068H38.2593ZM36.9613 42.9C36.9613 42.35 36.1693 42.02 34.8383 42.02C33.5293 42.02 32.7373 42.35 32.7373 42.9C32.7373 43.428 33.5293 43.747 34.8383 43.747C36.1693 43.747 36.9613 43.428 36.9613 42.9ZM35.9493 39.226L36.0813 40.205C35.0913 40.414 32.9023 40.502 31.6373 40.502H30.7133V35.717H35.2893V36.74H31.9783V37.565H35.1133V38.588H31.9783V39.479C33.1443 39.523 34.8493 39.446 35.9493 39.226Z" fill="#4E5968"/>
</svg>
