<svg width="60" height="49" viewBox="0 0 60 49" fill="none" xmlns="http://www.w3.org/2000/svg">
<path d="M29.8412 6C28.1276 5.99964 26.4427 6.43918 24.948 7.27651C23.4532 8.11383 22.1987 9.32086 21.3048 10.7819C20.4108 12.2429 19.9074 13.9089 19.8427 15.6203C19.7779 17.3316 20.1542 19.0309 20.9353 20.5551L19.9303 23.5573C19.8201 23.8841 19.8034 24.2352 19.8821 24.5709C19.9608 24.9067 20.1318 25.2139 20.3758 25.4577C20.6198 25.7016 20.9272 25.8725 21.2631 25.9512C21.5991 26.0299 21.9504 26.0132 22.2774 25.903L25.2812 24.9023C26.628 25.5895 28.1132 25.9626 29.625 25.9935C31.1369 26.0244 32.636 25.7124 34.0098 25.0809C35.3837 24.4494 36.5963 23.5148 37.5567 22.3474C38.5171 21.1801 39.2002 19.8103 39.5546 18.3411C39.909 16.8719 39.9256 15.3415 39.603 13.865C39.2804 12.3885 38.6271 11.0043 37.6922 9.81649C36.7573 8.62866 35.5651 7.66812 34.2052 7.00708C32.8454 6.34605 31.3533 6.00173 29.8412 6ZM29.8412 23.7739C28.4734 23.7744 27.1296 23.4145 25.9453 22.7306C25.7765 22.6327 25.5848 22.581 25.3896 22.5806C25.27 22.5809 25.1511 22.6002 25.0376 22.638L22.2783 23.5573L23.1981 20.7995C23.2479 20.6502 23.2654 20.4921 23.2494 20.3355C23.2334 20.179 23.1844 20.0276 23.1055 19.8914C22.2477 18.4094 21.9033 16.686 22.1257 14.9885C22.348 13.291 23.1247 11.7142 24.3352 10.5028C25.5457 9.29148 27.1223 8.51323 28.8205 8.28882C30.5188 8.06442 32.2436 8.40641 33.7275 9.26173C35.2114 10.1171 36.3714 11.4379 37.0275 13.0194C37.6836 14.6008 37.7992 16.3545 37.3563 18.0083C36.9134 19.6621 35.9368 21.1236 34.578 22.1661C33.2192 23.2085 31.5542 23.7737 29.8412 23.7739Z" fill="#8B95A1"/>
<path d="M28.8407 44.77H28.0157V39.754H26.8827V44.286H26.0687V35.387H26.8827V39.061H28.0157V35.156H28.8407V44.77ZM25.4087 38.335H23.5607V38.577C23.5607 40.348 24.6057 41.514 25.5737 42.031L25.0787 42.658C24.2977 42.174 23.3737 41.162 23.1317 40.227C22.9117 41.239 22.0647 42.339 21.1517 42.9L20.6567 42.339C21.7567 41.657 22.7137 40.392 22.7137 38.599V38.335H20.8437V37.631H25.4087V38.335ZM21.8447 36.707V35.981H24.3747V36.707H21.8447ZM38.1713 42.955C38.1713 44.044 37.0053 44.726 34.9373 44.726C32.8803 44.726 31.7253 44.044 31.7253 42.955C31.7253 41.855 32.8803 41.162 34.9373 41.162C37.0053 41.162 38.1713 41.855 38.1713 42.955ZM38.1053 35.156V41.14H37.2693V35.156H38.1053ZM37.2803 42.955C37.2803 42.273 36.4223 41.866 34.9373 41.866C33.4853 41.866 32.6163 42.273 32.6163 42.955C32.6163 43.626 33.4853 44.022 34.9373 44.022C36.4223 44.022 37.2803 43.626 37.2803 42.955ZM36.1913 39.534L36.2793 40.227C35.1683 40.392 33.0343 40.491 31.6373 40.491H30.7463V35.816H35.2343V36.509H31.5823V37.73H35.1353V38.412H31.5823V39.787H31.8903C33.1883 39.787 35.0253 39.732 36.1913 39.534Z" fill="#6B7684"/>
</svg>
