<svg width="24" height="24" viewBox="0 0 24 24" fill="none" xmlns="http://www.w3.org/2000/svg">
<path d="M21 11.5C21 11.7705 20.8925 12.03 20.7012 12.2212C20.51 12.4125 20.2505 12.52 19.98 12.52H13.52V18.98C13.52 19.2505 13.4125 19.51 13.2212 19.7012C13.03 19.8925 12.7705 20 12.5 20C12.2295 20 11.97 19.8925 11.7788 19.7012C11.5875 19.51 11.48 19.2505 11.48 18.98V12.52H5.02C4.74948 12.52 4.49004 12.4125 4.29875 12.2212C4.10746 12.03 4 11.7705 4 11.5C4 11.2295 4.10746 10.97 4.29875 10.7788C4.49004 10.5875 4.74948 10.48 5.02 10.48H11.48V4.02C11.48 3.74948 11.5875 3.49004 11.7788 3.29875C11.97 3.10746 12.2295 3 12.5 3C12.7705 3 13.03 3.10746 13.2212 3.29875C13.4125 3.49004 13.52 3.74948 13.52 4.02V10.48H19.98C20.2505 10.48 20.51 10.5875 20.7012 10.7788C20.8925 10.97 21 11.2295 21 11.5Z" fill="#8B95A1"/>
</svg>
