<svg width="59" height="49" viewBox="0 0 59 49" fill="none" xmlns="http://www.w3.org/2000/svg">
<path d="M30.875 15.5C30.875 15.7967 30.787 16.0867 30.6222 16.3334C30.4574 16.58 30.2231 16.7723 29.949 16.8858C29.6749 16.9994 29.3733 17.0291 29.0824 16.9712C28.7914 16.9133 28.5241 16.7704 28.3143 16.5607C28.1046 16.3509 27.9617 16.0836 27.9038 15.7926C27.8459 15.5017 27.8756 15.2001 27.9892 14.926C28.1027 14.6519 28.295 14.4176 28.5416 14.2528C28.7883 14.088 29.0783 14 29.375 14C29.7728 14 30.1544 14.158 30.4357 14.4393C30.717 14.7206 30.875 15.1022 30.875 15.5ZM23 14C22.7033 14 22.4133 14.088 22.1666 14.2528C21.92 14.4176 21.7277 14.6519 21.6142 14.926C21.5006 15.2001 21.4709 15.5017 21.5288 15.7926C21.5867 16.0836 21.7296 16.3509 21.9393 16.5607C22.1491 16.7704 22.4164 16.9133 22.7074 16.9712C22.9983 17.0291 23.2999 16.9994 23.574 16.8858C23.8481 16.7723 24.0824 16.58 24.2472 16.3334C24.412 16.0867 24.5 15.7967 24.5 15.5C24.5 15.1022 24.342 14.7206 24.0607 14.4393C23.7794 14.158 23.3978 14 23 14ZM35.75 14C35.4533 14 35.1633 14.088 34.9166 14.2528C34.67 14.4176 34.4777 14.6519 34.3642 14.926C34.2507 15.2001 34.2209 15.5017 34.2788 15.7926C34.3367 16.0836 34.4796 16.3509 34.6893 16.5607C34.8991 16.7704 35.1664 16.9133 35.4574 16.9712C35.7483 17.0291 36.0499 16.9994 36.324 16.8858C36.5981 16.7723 36.8324 16.58 36.9972 16.3334C37.162 16.0867 37.25 15.7967 37.25 15.5C37.25 15.1022 37.092 14.7206 36.8107 14.4393C36.5294 14.158 36.1478 14 35.75 14Z" fill="#8B95A1"/>
<path d="M23.4846 44.77H22.6486V39.38H19.8106V38.665H22.6486V35.156H23.4846V44.77ZM21.1966 41.36L21.2956 42.086C20.2286 42.284 18.4136 42.416 16.6976 42.383L16.0376 42.372V36.113H20.5696V36.817H16.8736V41.657C18.3036 41.712 20.1296 41.569 21.1966 41.36ZM32.7822 40.909H29.9002V42.867H33.8382V43.571H25.1592V42.867H29.0642V40.909H26.2042V35.816H27.0512V37.587H31.9462V35.816H32.7822V40.909ZM31.9462 40.216V38.28H27.0512V40.216H31.9462ZM42.5308 44.77H41.6948V35.156H42.5308V44.77ZM39.7038 36.179C39.6598 39.303 37.7458 41.69 35.2598 42.867L34.7758 42.207C37.2068 41.14 38.6368 39.05 38.8128 36.883H35.1278V36.179H39.7038Z" fill="#6B7684"/>
</svg>
