<svg width="59" height="49" viewBox="0 0 59 49" fill="none" xmlns="http://www.w3.org/2000/svg">
<path d="M29.429 14.08C31.3534 14.08 32.9135 12.5199 32.9135 10.5955C32.9135 8.67112 31.3534 7.11108 29.429 7.11108C27.5046 7.11108 25.9446 8.67112 25.9446 10.5955C25.9446 12.5199 27.5046 14.08 29.429 14.08Z" stroke="#8B95A1" stroke-width="2" stroke-linecap="round"/>
<path d="M37.5 24.8889C37.5 20.4695 34.1179 16.8889 29.9405 16.8889C25.763 16.8889 22.3889 20.4695 22.3889 24.8889H37.5Z" stroke="#8B95A1" stroke-width="2" stroke-linecap="round" stroke-linejoin="round"/>
<path d="M26.0214 37.884H23.8104V37.95C23.8104 39.182 24.9984 40.205 26.2084 40.491L25.7574 41.162C24.9104 40.909 23.7884 40.073 23.3814 39.193C23.1064 40.051 22.0504 41.052 20.9394 41.448L20.4884 40.777C21.7644 40.392 22.9634 39.193 22.9634 37.961V37.884H20.7744V37.191H26.0214V37.884ZM28.4854 44.539H22.0284V41.657H22.8644V43.835H28.4854V44.539ZM28.2544 42.218H27.4184V35.156H28.2544V42.218ZM24.7014 36.278H22.0834V35.574H24.7014V36.278ZM37.464 35.871C37.464 37.18 37.431 38.643 37.112 40.128H38.597V40.832H34.67V44.77H33.834V40.832H29.918V40.128H36.276C36.54 39.094 36.595 37.51 36.595 36.564H30.941V35.871H37.464Z" fill="#6B7684"/>
</svg>
