<svg width="59" height="49" viewBox="0 0 59 49" fill="none" xmlns="http://www.w3.org/2000/svg">
<path d="M29.4224 13.7689C31.585 13.7689 33.3381 12.0157 33.3381 9.85309C33.3381 7.69047 31.585 5.93732 29.4224 5.93732C27.2597 5.93732 25.5066 7.69047 25.5066 9.85309C25.5066 12.0157 27.2597 13.7689 29.4224 13.7689Z" fill="#4E5968"/>
<path d="M36.5109 25.0657C37.7344 25.0657 38.7034 24.042 38.4391 22.9559C37.4701 19.0034 33.829 16.0657 29.4831 16.0657C25.1372 16.0657 21.5058 19.0034 20.527 22.9559C20.2627 24.042 21.222 25.0657 22.4552 25.0657H36.5109Z" fill="#4E5968"/>
<path d="M20.7414 38.0145V36.9915H25.9114V38.0145H23.9974C24.1404 39.2685 25.1194 39.9615 26.1424 40.2475C25.9224 40.5885 25.7244 40.9185 25.5044 41.2485C24.7344 41.0175 23.7334 40.2695 23.3374 39.4445C22.9964 40.3245 21.9954 41.2045 21.0384 41.5125L20.3894 40.5225C21.6764 40.0935 22.5014 39.2685 22.6334 38.0145H20.7414ZM28.6724 44.6255H21.8194V41.7435H23.1174V43.6025H28.6724V44.6255ZM28.4084 42.1615H27.1324V35.0335H28.4084V42.1615ZM21.9074 36.4525V35.4405H24.7344V36.4525H21.9074ZM37.552 35.5615C37.552 37.1455 37.453 38.6195 37.233 39.7415H38.685V40.7645H34.879V44.8345H33.592V40.7645H29.83V39.7415H36.012C36.188 38.8945 36.276 37.7945 36.276 36.5955H30.919V35.5615H37.552Z" fill="#4E5968"/>
</svg>
