<svg width="24" height="24" viewBox="0 0 24 24" fill="none" xmlns="http://www.w3.org/2000/svg">
<path d="M20.5172 7.8608C20.3362 7.65658 20.1136 7.49304 19.8643 7.38104C19.6149 7.26904 19.3444 7.21115 19.0709 7.2112H14.571V5.9312C14.571 5.08251 14.2324 4.26858 13.6296 3.66846C13.0268 3.06834 12.2093 2.7312 11.3569 2.7312C11.2374 2.73112 11.1203 2.76415 11.0187 2.82661C10.9171 2.88907 10.835 2.97847 10.7815 3.0848L7.74573 9.1312H4.28567C3.94469 9.1312 3.61767 9.26606 3.37656 9.5061C3.13545 9.74615 3 10.0717 3 10.4112V17.4512C3 17.7907 3.13545 18.1163 3.37656 18.3563C3.61767 18.5963 3.94469 18.7312 4.28567 18.7312H18.1066C18.5765 18.7314 19.0302 18.5608 19.3826 18.2514C19.735 17.9421 19.9619 17.5153 20.0207 17.0512L20.9849 9.3712C21.0191 9.10082 20.9951 8.82629 20.9144 8.56587C20.8338 8.30545 20.6984 8.0651 20.5172 7.8608ZM4.28567 10.4112H7.49984V17.4512H4.28567V10.4112Z" fill="#5998EF"/>
</svg>
