<svg width="24" height="24" viewBox="0 0 24 24" fill="none" xmlns="http://www.w3.org/2000/svg">
<path d="M12 3C10.22 3 8.47991 3.52784 6.99987 4.51677C5.51983 5.50571 4.36628 6.91131 3.68509 8.55585C3.0039 10.2004 2.82567 12.01 3.17294 13.7558C3.5202 15.5016 4.37737 17.1053 5.63604 18.364C6.89471 19.6226 8.49836 20.4798 10.2442 20.8271C11.99 21.1743 13.7996 20.9961 15.4442 20.3149C17.0887 19.6337 18.4943 18.4802 19.4832 17.0001C20.4722 15.5201 21 13.78 21 12C20.9975 9.61382 20.0485 7.3261 18.3612 5.63882C16.6739 3.95154 14.3862 3.00252 12 3ZM8.88462 9.23077C9.09001 9.23077 9.29078 9.29167 9.46156 9.40578C9.63233 9.51989 9.76543 9.68207 9.84403 9.87183C9.92263 10.0616 9.9432 10.2704 9.90313 10.4718C9.86306 10.6733 9.76415 10.8583 9.61892 11.0035C9.47369 11.1488 9.28865 11.2477 9.08721 11.2877C8.88577 11.3278 8.67697 11.3072 8.48722 11.2286C8.29746 11.15 8.13528 11.0169 8.02117 10.8462C7.90706 10.6754 7.84616 10.4746 7.84616 10.2692C7.84616 9.99381 7.95557 9.72968 8.15031 9.53493C8.34506 9.34018 8.6092 9.23077 8.88462 9.23077ZM16.0604 14.4231C15.1699 15.9626 13.6901 16.8462 12 16.8462C10.3099 16.8462 8.8301 15.9635 7.93962 14.4231C7.88953 14.3443 7.85589 14.2562 7.84074 14.164C7.82558 14.0719 7.82923 13.9777 7.85144 13.887C7.87365 13.7963 7.91398 13.711 7.97 13.6363C8.02602 13.5616 8.09657 13.499 8.17741 13.4523C8.25824 13.4056 8.3477 13.3757 8.44039 13.3644C8.53308 13.3532 8.62709 13.3608 8.71676 13.3868C8.80643 13.4128 8.88992 13.4567 8.96219 13.5158C9.03446 13.5749 9.09403 13.648 9.13731 13.7308C9.78375 14.848 10.7997 15.4615 12 15.4615C13.2003 15.4615 14.2163 14.8471 14.8627 13.7308C14.906 13.648 14.9655 13.5749 15.0378 13.5158C15.1101 13.4567 15.1936 13.4128 15.2832 13.3868C15.3729 13.3608 15.4669 13.3532 15.5596 13.3644C15.6523 13.3757 15.7418 13.4056 15.8226 13.4523C15.9034 13.499 15.974 13.5616 16.03 13.6363C16.086 13.711 16.1264 13.7963 16.1486 13.887C16.1708 13.9777 16.1744 14.0719 16.1593 14.164C16.1441 14.2562 16.1105 14.3443 16.0604 14.4231ZM15.1154 11.3077C14.91 11.3077 14.7092 11.2468 14.5384 11.1327C14.3677 11.0186 14.2346 10.8564 14.156 10.6666C14.0774 10.4769 14.0568 10.2681 14.0969 10.0666C14.1369 9.86519 14.2359 9.68016 14.3811 9.53493C14.5263 9.3897 14.7114 9.29079 14.9128 9.25072C15.1142 9.21065 15.323 9.23122 15.5128 9.30982C15.7025 9.38841 15.8647 9.52152 15.9788 9.69229C16.0929 9.86307 16.1538 10.0638 16.1538 10.2692C16.1538 10.5446 16.0444 10.8088 15.8497 11.0035C15.6549 11.1983 15.3908 11.3077 15.1154 11.3077Z" fill="#7BCB6D"/>
</svg>
