<svg width="24" height="24" viewBox="0 0 24 24" fill="none" xmlns="http://www.w3.org/2000/svg">
<g clip-path="url(#clip0_22_3881)">
<circle cx="12" cy="12" r="12" fill="#E5E8EB"/>
<path d="M21 9.84489C21 15.3149 12.6597 19.7425 12.3046 19.9254C12.2109 19.9744 12.1063 20 12 20C11.8937 20 11.7891 19.9744 11.6954 19.9254C11.3403 19.7425 3 15.3149 3 9.84489C3.00149 8.56039 3.52687 7.32892 4.46088 6.42064C5.39489 5.51236 6.66125 5.00145 7.98214 5C9.64152 5 11.0944 5.69391 12 6.86685C12.9056 5.69391 14.3585 5 16.0179 5C17.3387 5.00145 18.6051 5.51236 19.5391 6.42064C20.4731 7.32892 20.9985 8.56039 21 9.84489Z" fill="#FF5A4B"/>
</g>
<defs>
<clipPath id="clip0_22_3881">
<rect width="24" height="24" fill="white"/>
</clipPath>
</defs>
</svg>
