<svg width="17" height="12" viewBox="0 0 17 12" fill="none" xmlns="http://www.w3.org/2000/svg">
<path fill-rule="evenodd" clip-rule="evenodd" d="M16.001 0.660889H15.001C14.4487 0.660889 14.001 1.1086 14.001 1.66089V10.3276C14.001 10.8798 14.4487 11.3276 15.001 11.3276H16.001C16.5532 11.3276 17.0009 10.8798 17.0009 10.3276V1.66089C17.0009 1.1086 16.5532 0.660889 16.001 0.660889ZM10.3367 2.9965H11.3367C11.889 2.9965 12.3367 3.44422 12.3367 3.9965V10.3298C12.3367 10.8821 11.889 11.3298 11.3367 11.3298H10.3367C9.78445 11.3298 9.33673 10.8821 9.33673 10.3298V3.9965C9.33673 3.44422 9.78445 2.9965 10.3367 2.9965ZM6.666 5.32492H5.66601C5.11373 5.32492 4.66602 5.77264 4.66602 6.32492V10.3249C4.66602 10.8772 5.11373 11.3249 5.66601 11.3249H6.666C7.21827 11.3249 7.66599 10.8772 7.66599 10.3249V6.32492C7.66599 5.77264 7.21827 5.32492 6.666 5.32492ZM2.001 7.32512H1.00099C0.448696 7.32512 0.000976562 7.77284 0.000976562 8.32512V10.3251C0.000976562 10.8774 0.448696 11.3251 1.00099 11.3251H2.001C2.55329 11.3251 3.00101 10.8774 3.00101 10.3251V8.32512C3.00101 7.77284 2.55329 7.32512 2.001 7.32512Z" fill="#222222"/>
</svg>
