<svg width="60" height="49" viewBox="0 0 60 49" fill="none" xmlns="http://www.w3.org/2000/svg">
<path d="M40.1979 21.6139C40.7088 20.5028 40.9539 19.288 40.9137 18.0657C40.8736 16.8434 40.5493 15.6473 39.9667 14.5721C39.384 13.4968 38.5589 12.5721 37.5568 11.8712C36.5547 11.1702 35.4031 10.7122 34.1932 10.5336C33.3112 8.65121 31.7206 7.19392 29.7684 6.47957C27.8162 5.76521 25.6607 5.85174 23.772 6.72029C21.8833 7.58883 20.4147 9.16893 19.6864 11.116C18.9581 13.063 19.0292 15.2191 19.8842 17.1139L19.2429 19.2946C19.1479 19.6177 19.1417 19.9605 19.2249 20.2869C19.3081 20.6132 19.4777 20.9112 19.7159 21.1494C19.9541 21.3875 20.252 21.5572 20.5784 21.6404C20.9048 21.7236 21.2476 21.7174 21.5707 21.6224L23.7513 20.9811C24.4291 21.2918 25.1475 21.5045 25.8851 21.613C26.7582 23.5103 28.3488 24.9835 30.3074 25.7088C32.266 26.434 34.4324 26.3522 36.3307 25.4811L38.5114 26.1224C38.8345 26.2174 39.1773 26.2236 39.5037 26.1404C39.83 26.0571 40.128 25.8875 40.3662 25.6494C40.6043 25.4112 40.7739 25.1132 40.8572 24.7869C40.9404 24.4605 40.9342 24.1177 40.8392 23.7946L40.1979 21.6139ZM23.8535 18.6524C23.7459 18.6522 23.6389 18.6677 23.5357 18.6983L21.5932 19.2692L22.166 17.3258C22.2482 17.044 22.2169 16.7412 22.0789 16.4821C21.441 15.2934 21.2516 13.915 21.5452 12.5983C21.8388 11.2816 22.5958 10.1143 23.6782 9.30918C24.7606 8.50404 26.0963 8.11471 27.4418 8.21218C28.7873 8.30965 30.0529 8.88742 31.008 9.84016C31.9631 10.7929 32.5439 12.0571 32.6447 13.4024C32.7454 14.7476 32.3594 16.0843 31.5569 17.1687C30.7544 18.253 29.5889 19.0129 28.2729 19.3097C26.957 19.6065 25.5782 19.4204 24.3879 18.7855C24.2236 18.6975 24.0399 18.6518 23.8535 18.6524ZM37.9995 20.9774C37.8614 21.2365 37.8301 21.5393 37.9123 21.8211L38.4832 23.7646L36.5435 23.1992C36.26 23.1156 35.9548 23.1469 35.6942 23.2864C34.4847 23.9331 33.0807 24.1156 31.7462 23.7996C30.4116 23.4837 29.2384 22.6911 28.4473 21.5708C30.4019 21.2177 32.1506 20.1385 33.3426 18.5497C34.5345 16.961 35.0816 14.9802 34.8739 13.0049C35.6434 13.27 36.3463 13.6989 36.934 14.2622C37.5216 14.8254 37.98 15.5094 38.2775 16.2671C38.5751 17.0247 38.7046 17.8379 38.6573 18.6505C38.6099 19.463 38.3868 20.2557 38.0032 20.9736L37.9995 20.9774Z" fill="#8B95A1"/>
<path d="M19.3486 38.379C19.3486 39.853 18.1386 40.854 16.2906 40.975V42.801H20.2286V43.505H11.5496V42.801H15.4546V40.975C13.6176 40.843 12.4186 39.853 12.4186 38.379C12.4186 36.795 13.8046 35.761 15.8726 35.761C17.9736 35.761 19.3486 36.795 19.3486 38.379ZM18.5456 38.39C18.5456 37.235 17.5006 36.465 15.8726 36.465C14.2776 36.465 13.2326 37.235 13.2326 38.39C13.2326 39.545 14.2776 40.304 15.8726 40.304C17.4896 40.304 18.5456 39.545 18.5456 38.39ZM28.7782 39.424H21.9802V38.731H23.4432L23.1902 36.927L24.0592 36.828L24.2462 38.731H26.5232L26.7432 36.817L27.6122 36.905L27.3152 38.731H28.7782V39.424ZM28.8002 44.473H22.1452V41.888H22.9812V43.769H28.8002V44.473ZM29.7462 41.063H21.0672V40.359H29.7462V41.063ZM28.8442 36.465H21.9142V35.772H28.8442V36.465ZM38.6917 44.77H37.8667V39.754H36.7337V44.286H35.9197V35.387H36.7337V39.061H37.8667V35.156H38.6917V44.77ZM35.2597 38.335H33.4117V38.577C33.4117 40.348 34.4567 41.514 35.4247 42.031L34.9297 42.658C34.1487 42.174 33.2247 41.162 32.9827 40.227C32.7627 41.239 31.9157 42.339 31.0027 42.9L30.5077 42.339C31.6077 41.657 32.5647 40.392 32.5647 38.599V38.335H30.6947V37.631H35.2597V38.335ZM31.6957 36.707V35.981H34.2257V36.707H31.6957ZM48.0223 42.955C48.0223 44.044 46.8563 44.726 44.7883 44.726C42.7313 44.726 41.5763 44.044 41.5763 42.955C41.5763 41.855 42.7313 41.162 44.7883 41.162C46.8563 41.162 48.0223 41.855 48.0223 42.955ZM47.9563 35.156V41.14H47.1203V35.156H47.9563ZM47.1313 42.955C47.1313 42.273 46.2733 41.866 44.7883 41.866C43.3363 41.866 42.4673 42.273 42.4673 42.955C42.4673 43.626 43.3363 44.022 44.7883 44.022C46.2733 44.022 47.1313 43.626 47.1313 42.955ZM46.0423 39.534L46.1303 40.227C45.0193 40.392 42.8853 40.491 41.4883 40.491H40.5973V35.816H45.0853V36.509H41.4333V37.73H44.9863V38.412H41.4333V39.787H41.7413C43.0393 39.787 44.8763 39.732 46.0423 39.534Z" fill="#6B7684"/>
</svg>
