<svg width="28" height="28" viewBox="0 0 28 28" fill="none" xmlns="http://www.w3.org/2000/svg">
<circle cx="14.0001" cy="14" r="12.8333" fill="#6B7684"/>
<path d="M19.9231 10.9207H17.5619C17.5882 10.8976 17.6151 10.8752 17.6407 10.8507C17.8451 10.6619 18.0098 10.4312 18.1246 10.1731C18.2394 9.91498 18.3017 9.63504 18.3077 9.35074C18.3165 9.03974 18.2642 8.73013 18.1538 8.44094C18.0434 8.15174 17.8773 7.88906 17.6658 7.66902C17.4543 7.44897 17.2017 7.27621 16.9237 7.16134C16.6456 7.04647 16.3479 6.99191 16.0488 7.00101C15.7754 7.00713 15.506 7.0719 15.2577 7.19126C15.0094 7.31062 14.7875 7.48199 14.6058 7.69466C14.3544 7.99766 14.15 8.33962 14 8.70819C13.85 8.33962 13.6456 7.99766 13.3942 7.69466C13.2125 7.48199 12.9906 7.31062 12.7423 7.19126C12.494 7.0719 12.2246 7.00713 11.9512 7.00101C11.6521 6.99191 11.3544 7.04647 11.0763 7.16134C10.7983 7.27621 10.5457 7.44897 10.3342 7.66902C10.1227 7.88906 9.9566 8.15174 9.84622 8.44094C9.73584 8.73013 9.68347 9.03974 9.69231 9.35074C9.69829 9.63504 9.76062 9.91498 9.87539 10.1731C9.99016 10.4312 10.1549 10.6619 10.3593 10.8507C10.3849 10.8738 10.4118 10.8962 10.4381 10.9207H8.07692C7.79131 10.9207 7.51739 11.0387 7.31542 11.2488C7.11346 11.4588 7 11.7436 7 12.0407V14.2805C7 14.5775 7.11346 14.8624 7.31542 15.0724C7.51739 15.2824 7.79131 15.4004 8.07692 15.4004V19.8801C8.07692 20.1771 8.19038 20.462 8.39235 20.672C8.59431 20.882 8.86823 21 9.15385 21H13.1923C13.2637 21 13.3322 20.9705 13.3827 20.918C13.4332 20.8655 13.4615 20.7943 13.4615 20.7201V14.2805H8.07692V12.0407H13.4615V14.2805H14.5385V12.0407H19.9231V14.2805H14.5385V20.7201C14.5385 20.7943 14.5668 20.8655 14.6173 20.918C14.6678 20.9705 14.7363 21 14.8077 21H18.8462C19.1318 21 19.4057 20.882 19.6077 20.672C19.8096 20.462 19.9231 20.1771 19.9231 19.8801V15.4004C20.2087 15.4004 20.4826 15.2824 20.6846 15.0724C20.8865 14.8624 21 14.5775 21 14.2805V12.0407C21 11.7436 20.8865 11.4588 20.6846 11.2488C20.4826 11.0387 20.2087 10.9207 19.9231 10.9207ZM11.0728 10.0108C10.9786 9.92214 10.9031 9.81419 10.851 9.69374C10.7989 9.57328 10.7713 9.44293 10.7699 9.31085C10.7665 9.15609 10.7928 9.00218 10.8474 8.85814C10.9019 8.7141 10.9835 8.58283 11.0874 8.47201C11.1914 8.36119 11.3155 8.27305 11.4526 8.21277C11.5897 8.15248 11.737 8.12126 11.8859 8.12093H11.9188C12.0459 8.12235 12.1712 8.15107 12.287 8.20527C12.4029 8.25948 12.5067 8.338 12.5919 8.43591C13.1566 9.09946 13.3559 10.1998 13.4259 10.8801C12.7689 10.808 11.7115 10.6009 11.0728 10.0108ZM16.9286 10.0108C16.2898 10.5988 15.2297 10.8059 14.5728 10.8787C14.6529 10.1431 14.875 9.06586 15.4135 8.43661C15.4987 8.3387 15.6025 8.26018 15.7183 8.20597C15.8342 8.15177 15.9595 8.12305 16.0865 8.12163H16.1195C16.2684 8.1226 16.4156 8.15445 16.5524 8.21533C16.6893 8.27621 16.8131 8.36489 16.9166 8.47617C17.0201 8.58744 17.1012 8.71908 17.1551 8.86337C17.2091 9.00766 17.2348 9.16169 17.2308 9.31645C17.2286 9.44763 17.2005 9.57695 17.1483 9.69638C17.0961 9.81582 17.0208 9.92284 16.9272 10.0108H16.9286Z" fill="white"/>
</svg>
