<svg width="18" height="18" viewBox="0 0 18 18" fill="none" xmlns="http://www.w3.org/2000/svg">
<path d="M17 5.03901H13.35L13.9842 1.27353C14.0317 0.991707 13.9736 0.701046 13.8226 0.46549C13.6716 0.229933 13.4402 0.068775 13.1792 0.0174695C12.9181 -0.033836 12.6489 0.0289133 12.4308 0.191913C12.2126 0.354913 12.0634 0.604812 12.0158 0.886634L11.3167 5.03901H8.01667L8.65083 1.27353C8.67436 1.13399 8.6722 0.990803 8.64448 0.85216C8.61676 0.713516 8.56402 0.582125 8.48927 0.46549C8.41452 0.348854 8.31922 0.249257 8.20882 0.172385C8.09842 0.0955138 7.97508 0.0428734 7.84583 0.0174695C7.71659 -0.0079344 7.58398 -0.00560441 7.45557 0.0243267C7.32716 0.0542578 7.20547 0.111204 7.09745 0.191913C6.87928 0.354913 6.73002 0.604812 6.6825 0.886634L5.98333 5.03901H2.33333C2.06812 5.03901 1.81376 5.15276 1.62623 5.35525C1.43869 5.55773 1.33333 5.83236 1.33333 6.11872C1.33333 6.40507 1.43869 6.6797 1.62623 6.88218C1.81376 7.08467 2.06812 7.19842 2.33333 7.19842H5.62L5.01417 10.7974H1C0.734784 10.7974 0.48043 10.9112 0.292893 11.1137C0.105357 11.3162 0 11.5908 0 11.8772C0 12.1635 0.105357 12.4381 0.292893 12.6406C0.48043 12.8431 0.734784 12.9569 1 12.9569H4.65L4.01583 16.7223C3.99178 16.8622 3.99353 17.0057 4.02101 17.1448C4.04848 17.2839 4.10113 17.4157 4.17593 17.5328C4.25073 17.6498 4.3462 17.7497 4.45688 17.8268C4.56755 17.9039 4.69123 17.9567 4.82083 17.982C4.88003 17.9926 4.94002 17.9971 5 17.9955C5.23418 17.9953 5.46087 17.9064 5.64057 17.7443C5.82027 17.5822 5.94157 17.3571 5.98333 17.1083L6.68333 12.9569H9.98333L9.34917 16.7223C9.32511 16.8622 9.32687 17.0057 9.35434 17.1448C9.38181 17.2839 9.43446 17.4157 9.50926 17.5328C9.58406 17.6498 9.67954 17.7497 9.79021 17.8268C9.90088 17.9039 10.0246 17.9567 10.1542 17.982C10.2135 17.9941 10.2738 18.0002 10.3342 18C10.5683 17.9998 10.795 17.9109 10.9747 17.7488C11.1544 17.5867 11.2757 17.3616 11.3175 17.1128L12.0167 12.9569H15.6667C15.9319 12.9569 16.1862 12.8431 16.3738 12.6406C16.5613 12.4381 16.6667 12.1635 16.6667 11.8772C16.6667 11.5908 16.5613 11.3162 16.3738 11.1137C16.1862 10.9112 15.9319 10.7974 15.6667 10.7974H12.38L12.9858 7.19842H17C17.2652 7.19842 17.5196 7.08467 17.7071 6.88218C17.8946 6.6797 18 6.40507 18 6.11872C18 5.83236 17.8946 5.55773 17.7071 5.35525C17.5196 5.15276 17.2652 5.03901 17 5.03901ZM10.3475 10.7974H7.04667L7.6525 7.19842H10.9533L10.3475 10.7974Z" fill="#B0B8C1"/>
</svg>
