<svg width="18" height="18" viewBox="0 0 18 18" fill="none" xmlns="http://www.w3.org/2000/svg">
<path d="M9 0C7.21997 0 5.47991 0.527841 3.99987 1.51677C2.51983 2.50571 1.36628 3.91131 0.685088 5.55585C0.00389956 7.20038 -0.17433 9.00998 0.172936 10.7558C0.520203 12.5016 1.37737 14.1053 2.63604 15.364C3.89471 16.6226 5.49836 17.4798 7.24419 17.8271C8.99002 18.1743 10.7996 17.9961 12.4442 17.3149C14.0887 16.6337 15.4943 15.4802 16.4832 14.0001C17.4722 12.5201 18 10.78 18 9C17.9975 6.61382 17.0485 4.3261 15.3612 2.63882C13.6739 0.95154 11.3862 0.00251984 9 0ZM5.88462 6.23077C6.09001 6.23077 6.29078 6.29167 6.46156 6.40578C6.63233 6.51989 6.76543 6.68207 6.84403 6.87183C6.92263 7.06158 6.94319 7.27038 6.90313 7.47182C6.86306 7.67326 6.76415 7.8583 6.61892 8.00353C6.47369 8.14876 6.28865 8.24767 6.08721 8.28774C5.88577 8.32781 5.67697 8.30724 5.48722 8.22864C5.29746 8.15004 5.13528 8.01694 5.02117 7.84617C4.90706 7.67539 4.84616 7.47462 4.84616 7.26923C4.84616 6.99381 4.95557 6.72968 5.15031 6.53493C5.34506 6.34018 5.6092 6.23077 5.88462 6.23077ZM13.0604 11.4231C12.1699 12.9626 10.6901 13.8462 9 13.8462C7.30991 13.8462 5.8301 12.9635 4.93962 11.4231C4.88953 11.3443 4.85589 11.2562 4.84074 11.164C4.82558 11.0719 4.82922 10.9776 4.85144 10.887C4.87365 10.7963 4.91398 10.711 4.97 10.6363C5.02602 10.5616 5.09657 10.499 5.17741 10.4523C5.25824 10.4056 5.3477 10.3757 5.44039 10.3644C5.53308 10.3532 5.62709 10.3608 5.71676 10.3868C5.80643 10.4128 5.88992 10.4567 5.96219 10.5158C6.03446 10.5749 6.09403 10.648 6.13731 10.7308C6.78375 11.848 7.79971 12.4615 9 12.4615C10.2003 12.4615 11.2163 11.8471 11.8627 10.7308C11.906 10.648 11.9655 10.5749 12.0378 10.5158C12.1101 10.4567 12.1936 10.4128 12.2832 10.3868C12.3729 10.3608 12.4669 10.3532 12.5596 10.3644C12.6523 10.3757 12.7418 10.4056 12.8226 10.4523C12.9034 10.499 12.974 10.5616 13.03 10.6363C13.086 10.711 13.1264 10.7963 13.1486 10.887C13.1708 10.9776 13.1744 11.0719 13.1593 11.164C13.1441 11.2562 13.1105 11.3443 13.0604 11.4231ZM12.1154 8.30769C11.91 8.30769 11.7092 8.24679 11.5384 8.13268C11.3677 8.01857 11.2346 7.85639 11.156 7.66663C11.0774 7.47688 11.0568 7.26808 11.0969 7.06664C11.1369 6.86519 11.2359 6.68016 11.3811 6.53493C11.5263 6.38969 11.7114 6.29079 11.9128 6.25072C12.1142 6.21065 12.323 6.23122 12.5128 6.30982C12.7025 6.38841 12.8647 6.52152 12.9788 6.69229C13.0929 6.86307 13.1538 7.06384 13.1538 7.26923C13.1538 7.54465 13.0444 7.80878 12.8497 8.00353C12.6549 8.19828 12.3908 8.30769 12.1154 8.30769Z" fill="#B0B8C1"/>
</svg>
