<svg width="16" height="12" viewBox="0 0 16 12" fill="none" xmlns="http://www.w3.org/2000/svg">
<path fill-rule="evenodd" clip-rule="evenodd" d="M7.66608 2.61175C9.89081 2.61185 12.0305 3.46596 13.6428 4.99755C13.7642 5.11579 13.9583 5.1143 14.0779 4.99421L15.2385 3.82388C15.299 3.76296 15.3328 3.68045 15.3323 3.5946C15.3318 3.50876 15.2971 3.42665 15.2358 3.36644C11.0039 -0.685787 4.32759 -0.685787 0.0956799 3.36644C0.0343778 3.4266 -0.000404289 3.50869 -0.000969564 3.59453C-0.00153484 3.68038 0.0321633 3.76292 0.0926679 3.82388L1.25361 4.99421C1.37312 5.11448 1.56733 5.11598 1.68867 4.99755C3.30123 3.46586 5.44114 2.61174 7.66608 2.61175ZM7.66816 6.41792C8.8905 6.41785 10.0692 6.8718 10.9753 7.69157C11.0978 7.80792 11.2909 7.8054 11.4104 7.68589L12.5696 6.51556C12.6307 6.45417 12.6646 6.37089 12.6637 6.28436C12.6628 6.19782 12.6272 6.11525 12.5649 6.05512C9.80579 3.49071 5.53287 3.49071 2.77371 6.05512C2.71138 6.11525 2.67582 6.19786 2.675 6.28443C2.67418 6.37099 2.70818 6.45426 2.76935 6.51556L3.92829 7.68589C4.04776 7.8054 4.24081 7.80792 4.36336 7.69157C5.26883 6.87234 6.44662 6.41843 7.66816 6.41792ZM9.98745 8.98375C9.98923 9.07053 9.95508 9.1542 9.89308 9.21499L7.88778 11.237C7.829 11.2964 7.74886 11.3299 7.66523 11.3299C7.58161 11.3299 7.50147 11.2964 7.44268 11.237L5.43705 9.21499C5.37509 9.15415 5.34101 9.07046 5.34284 8.98368C5.34468 8.8969 5.38228 8.81473 5.44675 8.75656C6.72741 7.67429 8.60305 7.67429 9.88371 8.75656C9.94814 8.81477 9.98568 8.89698 9.98745 8.98375Z" fill="#222222"/>
</svg>
